<?xml version="1.0" encoding="UTF-8"?>
<svg width="18px" height="18px" viewBox="0 0 18 18" version="1.1" xmlns="http://www.w3.org/2000/svg" xmlns:xlink="http://www.w3.org/1999/xlink">
    <!-- Generator: Sketch 54.1 (76490) - https://sketchapp.com -->
    <title>Shape Copy</title>
    <desc>Created with Sketch.</desc>
    <g id="06-Cart" stroke="none" stroke-width="1" fill="none" fill-rule="evenodd">
        <path d="M8.23484511,9.00245462 L1.15256846,16.1342098 C0.955810774,16.332342 0.955810774,16.6533314 1.15256846,16.8514637 C1.2508223,16.9506557 1.37982734,17 1.50858237,17 C1.63758741,17 1.76634244,16.9506557 1.86459627,16.8514637 L9.000125,9.66608448 L16.1356537,16.8514637 C16.2341576,16.9506557 16.3629126,17 16.4916676,17 C16.6204227,17 16.7494277,16.9506557 16.8476816,16.8514637 C17.0444392,16.6533314 17.0444392,16.332342 16.8476816,16.1342098 L9.76565491,9.00245462 L16.8524317,1.86566436 C17.0491894,1.66753208 17.0491894,1.34654268 16.8524317,1.14841039 C16.655674,0.950529869 16.3369116,0.950529869 16.1404039,1.14841039 L9.00037501,8.33882477 L1.85959608,1.14866215 C1.66283839,0.950781625 1.34432595,0.950781625 1.14756826,1.14866215 C0.950810579,1.34679443 0.950810579,1.66778384 1.14756826,1.86591612 L8.23484511,9.00245462 Z" id="Shape-Copy" stroke="#000000" stroke-width="0.65" fill="#000000" fill-rule="nonzero"></path>
    </g>
</svg>